<?xml version="1.0" encoding="utf-8"?>
<!-- Generator: Adobe Illustrator 25.2.3, SVG Export Plug-In . SVG Version: 6.00 Build 0)  -->
<svg version="1.1" id="Color_1_" xmlns="http://www.w3.org/2000/svg" xmlns:xlink="http://www.w3.org/1999/xlink" x="0px" y="0px"
	 viewBox="0 0 512 512" enable-background="new 0 0 512 512" xml:space="preserve">
<path fill="#34AD85" d="M232.349,40c0-17.68,14.32-32,32-32h16l11.6,23.12c2.72,5.44,8.24,8.88,14.32,8.88h118.08
	c5.04,0,9.76-2.4,12.8-6.4l19.2-25.6h16c17.68,0,32,14.32,32,32v432h-272V40z"/>
<path fill="#63D3B0" d="M248.349,442.316V37.684c0-7.557,6.127-13.684,13.684-13.684l0,0c5.177,0,9.91,2.921,12.231,7.548
	l8.479,16.903c2.321,4.627,7.055,7.548,12.231,7.548h129.374c9.941,0,19.488-4.758,25.539-12.719l10.356-13.808
	c2.584-3.446,6.64-5.474,10.947-5.474h3.474c7.557,0,13.684,6.127,13.684,13.684v404.632c0,7.557-6.127,13.684-13.684,13.684
	H262.033C254.476,456,248.349,449.873,248.349,442.316z"/>
<path fill="#34AD85" d="M232.349,184h104c8.837,0,16,7.737,16,17.28v181.44c0,9.543-7.163,17.28-16,17.28h-104"/>
<path fill="#E87570" d="M328.349,256v112c0,4.4-2.88,8-6.4,8h-89.6h-217.6c-3.52,0-6.4-3.6-6.4-8V256H328.349z"/>
<path fill="#EBE8ED" d="M295.349,344h-54c-0.552,0-1-0.448-1-1v-38c0-0.552,0.448-1,1-1h54c0.552,0,1,0.448,1,1v38
	C296.349,343.552,295.902,344,295.349,344z"/>
<path fill="#A09F9F" d="M232.349,472h272c0,17.68-14.32,32-32,32h-208C246.669,504,232.349,489.68,232.349,472z"/>
<path fill="#A09F9F" d="M456.349,8l-19.2,25.6c-3.04,4-7.76,6.4-12.8,6.4h-118.08c-6.08,0-11.6-3.44-14.32-8.88L280.349,8H456.349z"
	/>
<path fill="#808080" d="M504.349,472c0,17.68-14.32,32-32,32h-208c-11.92,0-22.32-6.56-27.84-16.24c1.28,0.16,2.56,0.24,3.84,0.24
	h208c11.84,0,22.16-6.4,27.68-16H504.349z"/>
<path fill="#808080" d="M456.349,8l-19.2,25.6c-3.04,4-7.76,6.4-12.8,6.4h-118.08c-6.08,0-11.6-3.44-14.32-8.88l-3.6-7.12h112
	c5.04,0,9.76-2.4,12.8-6.4l7.2-9.6H456.349z"/>
<rect x="8.349" y="208" fill="#A09F9F" width="320" height="48"/>
<path fill="#E87570" d="M328.349,176v32h-320v-32c0-4.4,2.88-8,6.4-8h217.6h89.6C325.469,168,328.349,171.6,328.349,176z"/>
<path fill="#DB4D4D" d="M328.349,256v112c0,4.4-2.88,8-6.4,8h-307.2c-3.52,0-6.4-3.6-6.4-8v-24h232.72
	c30.48,0,55.28-24.8,55.28-55.28V256H328.349z"/>
<path fill="#B6A6C9" d="M296.349,312v24c0,4.4-3.6,8-8,8h-40c-0.72,0-1.36-0.08-2-0.32c22.16-2,40.48-17.28,47.2-37.76
	C295.229,307.44,296.349,309.6,296.349,312z"/>
<path fill="#EBE8ED" d="M293.55,305.92c-6.72,20.48-25.04,35.76-47.2,37.76c-3.44-0.8-6-4-6-7.68v-24c0-4.4,3.6-8,8-8h40
	C290.349,304,292.109,304.72,293.55,305.92z"/>
<rect x="296.349" y="208" fill="#808080" width="32" height="48"/>
<path fill="#DB4D4D" d="M328.349,176v32h-32v-40h25.6C325.469,168,328.349,171.6,328.349,176z"/>
<g>
	<path fill="#AEFFE4" d="M258.371,59.056c12.819-2.034,12.059-27.214-0.781-25.177C244.771,35.913,245.531,61.093,258.371,59.056z"
		/>
	<path fill="#AEFFE4" d="M258.162,71.927c6.409-1.017,4.84-10.98-1.58-9.961C250.172,62.983,251.742,72.946,258.162,71.927z"/>
</g>
<path fill="#472B3C" d="M472.349,0h-208c-22.055,0-40,17.945-40,40v120H14.748c-7.937,0-14.398,7.18-14.398,16v192
	c0,8.82,6.461,16,14.398,16h209.602v88c0,22.055,17.945,40,40,40h208c22.055,0,40-17.945,40-40V40
	C512.349,17.945,494.404,0,472.349,0z M440.353,16l-9.574,12.766c-1.539,2.023-3.945,3.234-6.43,3.234H306.271
	c-3.047,0-5.789-1.711-7.172-4.469L293.312,16H440.353z M320.349,176v24h-216c-4.418,0-8,3.578-8,8s3.582,8,8,8h216v32H16.437
	l0.023-32h55.889c4.418,0,8-3.578,8-8s-3.582-8-8-8H16.472l0.018-24H320.349z M16.426,264h303.924v104h-304L16.426,264z
	 M472.349,496h-208c-10.416,0-19.212-6.708-22.525-16h46.525c4.418,0,8-3.578,8-8s-3.582-8-8-8h-48v-80h81.602
	c7.938,0,14.398-7.18,14.398-16V176c0-8.82-6.461-16-14.398-16h-81.602V40c0-13.234,10.766-24,24-24h11.067l9.378,18.688
	C288.892,42.898,297.123,48,306.271,48h118.078c7.457,0,14.625-3.57,19.199-9.602L460.346,16h12.003c13.234,0,24,10.766,24,24v424
	h-176c-4.418,0-8,3.578-8,8s3.582,8,8,8h174.526C491.562,489.292,482.765,496,472.349,496z"/>
<path fill="#472B3C" d="M248.349,352h40c8.824,0,16-7.18,16-16v-24c0-8.82-7.176-16-16-16h-40c-8.824,0-16,7.18-16,16v24
	C232.349,344.82,239.525,352,248.349,352z M248.349,312h40l-0.023,24h-39.977V312z"/>
<path fill="#472B3C" d="M40.349,304h72c4.418,0,8-3.578,8-8s-3.582-8-8-8h-72c-4.418,0-8,3.578-8,8S35.931,304,40.349,304z"/>
<path fill="#472B3C" d="M176.349,328h-136c-4.418,0-8,3.578-8,8s3.582,8,8,8h136c4.418,0,8-3.578,8-8S180.767,328,176.349,328z"/>
</svg>
